<?xml version="1.0" encoding="UTF-8" standalone="no"?>
<svg
   xmlns:dc="http://purl.org/dc/elements/1.1/"
   xmlns:cc="http://creativecommons.org/ns#"
   xmlns:rdf="http://www.w3.org/1999/02/22-rdf-syntax-ns#"
   xmlns:svg="http://www.w3.org/2000/svg"
   xmlns="http://www.w3.org/2000/svg"
   xmlns:sodipodi="http://sodipodi.sourceforge.net/DTD/sodipodi-0.dtd"
   xmlns:inkscape="http://www.inkscape.org/namespaces/inkscape"
   width="173.673"
   height="107"
   viewBox="0 0 173.673 107"
   version="1.1"
   id="svg14"
   sodipodi:docname="Group 11.svg"
   inkscape:version="0.92.4 (5da689c313, 2019-01-14)">
  <metadata
     id="metadata20">
    <rdf:RDF>
      <cc:Work
         rdf:about="">
        <dc:format>image/svg+xml</dc:format>
        <dc:type
           rdf:resource="http://purl.org/dc/dcmitype/StillImage" />
        <dc:title></dc:title>
      </cc:Work>
    </rdf:RDF>
  </metadata>
  <defs
     id="defs18" />
  <sodipodi:namedview
     pagecolor="#ffffff"
     bordercolor="#666666"
     borderopacity="1"
     objecttolerance="10"
     gridtolerance="10"
     guidetolerance="10"
     inkscape:pageopacity="0"
     inkscape:pageshadow="2"
     inkscape:window-width="1920"
     inkscape:window-height="1017"
     id="namedview16"
     showgrid="false"
     fit-margin-top="0"
     fit-margin-left="0"
     fit-margin-right="0"
     fit-margin-bottom="0"
     inkscape:zoom="1.8990536"
     inkscape:cx="177.0768"
     inkscape:cy="40.460165"
     inkscape:window-x="1272"
     inkscape:window-y="-8"
     inkscape:window-maximized="1"
     inkscape:current-layer="svg14" />
  <path
     d="M 21.188,107 81.928,15.4868 142.667,107 Z M 0,107 70.627,0 77.69,9.85526 12.713,107 Z"
     id="path2"
     inkscape:connector-curvature="0"
 />
  <path
     d="M 45.872,100 V 74.512 h 12.456 v -5.724 h 5.148 V 79.3 H 51.02 V 100 Z m 20.988,0 V 74.512 h 5.148 V 91.288 L 84.212,74.512 h 4.392 V 100 H 83.456 V 83.44 L 71.252,100 Z m 27.141,0 V 74.512 h 6.804 l 6.876,12.312 6.768,-12.312 h 6.588 V 100 h -5.184 V 81.352 l -7.236,12.96 h -2.124 L 99.149,81.352 V 100 Z m 32.449,0 V 74.512 h 18.756 V 79.3 h -13.608 v 5.076 h 5.508 c 1.248,0 2.436,0.108 3.564,0.324 1.128,0.192 2.136,0.552 3.024,1.08 0.888,0.504 1.584,1.236 2.088,2.196 0.528,0.96 0.792,2.184 0.792,3.672 0,1.632 -0.3,2.988 -0.9,4.068 -0.576,1.08 -1.356,1.944 -2.34,2.592 -0.96,0.624 -2.064,1.068 -3.312,1.332 -1.224,0.24 -2.484,0.36 -3.78,0.36 z m 5.148,-4.752 h 4.752 c 0.6,0 1.2,-0.036 1.8,-0.108 0.624,-0.096 1.176,-0.252 1.656,-0.468 0.48,-0.216 0.864,-0.54 1.152,-0.972 0.312,-0.456 0.468,-1.056 0.468,-1.8 0,-0.672 -0.132,-1.2 -0.396,-1.584 -0.24,-0.408 -0.588,-0.708 -1.044,-0.9 -0.456,-0.216 -0.984,-0.36 -1.584,-0.432 -0.576,-0.072 -1.188,-0.108 -1.836,-0.108 h -4.968 z m 16.551,4.752 9.936,-25.488 h 5.76 L 173.673,100 h -5.544 l -1.584,-4.356 H 155.277 L 153.693,100 Z m 8.784,-9 h 7.992 l -3.96,-11.016 z"
     id="path4"
     inkscape:connector-curvature="0"
 />
  <path
     d="m 126.453,99.9997 h 9.792 c 0.57,0 1.133,-0.0232 1.689,-0.0696 l -3.077,-4.6824 h -3.256 v -4.932 l -5.148,-7.7454 z"
     id="path6"
     inkscape:connector-curvature="0"
     style="fill:#ffffff" />
  <path
     d="m 94,99.9997 v -25.488 h 6.804 l 6.876,12.312 6.768,-12.312 h 6.588 v 25.488 h -5.184 v -18.648 l -7.236,12.96 h -2.124 l -7.344,-12.96 v 18.648 z"
     id="path8"
     inkscape:connector-curvature="0"
     style="fill:#ffffff" />
  <path
     d="m 66.86,99.9997 v -25.488 h 5.147 v 16.776 l 12.205,-16.776 h 4.391 v 25.488 h -5.147 v -16.56 l -12.204,16.56 z"
     id="path10"
     inkscape:connector-curvature="0"
     style="fill:#ffffff" />
  <path
     d="M 45.875,100 V 74.5121 h 12.456 v -5.724 h 5.148 v 10.512 H 51.023 V 100 Z"
     id="path12"
     inkscape:connector-curvature="0"
     style="fill:#ffffff" />
</svg>
