<svg width="8" height="6" viewBox="0 0 8 6" fill="none" xmlns="http://www.w3.org/2000/svg">
<path d="M7.99977 1.04433C8.00642 1.36721 7.86682 1.6242 7.64414 1.84824C6.73344 2.7477 5.82607 3.65045 4.9187 4.5499C4.54644 4.91891 4.17751 5.28792 3.80193 5.65693C3.33994 6.1116 2.70843 6.11489 2.24976 5.66352C1.60496 5.03093 0.960166 4.39505 0.322015 3.75258C-0.10342 3.32427 -0.106743 2.67521 0.30872 2.26008C0.714212 1.84494 1.37563 1.84494 1.81436 2.26008C1.95063 2.38857 2.08358 2.52036 2.2132 2.65544C2.44586 2.89596 2.46248 3.19907 2.25309 3.45935C2.12014 3.62738 2.11349 3.75588 2.22982 3.8679C2.34947 3.97992 2.50237 3.96344 2.65193 3.81189C3.8252 2.64885 4.99514 1.48912 6.16841 0.329377C6.62708 -0.125293 7.33171 -0.105525 7.74385 0.365619C7.91668 0.560007 7.99977 0.787342 7.99977 1.04433Z" fill="white"/>
</svg>
