<?xml version="1.0" encoding="UTF-8" standalone="no"?>
<svg
   xmlns:dc="http://purl.org/dc/elements/1.1/"
   xmlns:cc="http://creativecommons.org/ns#"
   xmlns:rdf="http://www.w3.org/1999/02/22-rdf-syntax-ns#"
   xmlns:svg="http://www.w3.org/2000/svg"
   xmlns="http://www.w3.org/2000/svg"
   xmlns:sodipodi="http://sodipodi.sourceforge.net/DTD/sodipodi-0.dtd"
   xmlns:inkscape="http://www.inkscape.org/namespaces/inkscape"
   viewBox="0 0 141.69501 107"
   version="1.1"
   id="svg18"
   sodipodi:docname="logoSmall.svg"
   inkscape:version="0.92.4 (5da689c313, 2019-01-14)"
   width="141.69501"
   height="107">
  <metadata
     id="metadata24">
    <rdf:RDF>
      <cc:Work
         rdf:about="">
        <dc:format>image/svg+xml</dc:format>
        <dc:type
           rdf:resource="http://purl.org/dc/dcmitype/StillImage" />
        <dc:title></dc:title>
      </cc:Work>
    </rdf:RDF>
  </metadata>
  <defs
     id="defs22" />
  <sodipodi:namedview
     pagecolor="#ffffff"
     bordercolor="#666666"
     borderopacity="1"
     objecttolerance="10"
     gridtolerance="10"
     guidetolerance="10"
     inkscape:pageopacity="0"
     inkscape:pageshadow="2"
     inkscape:window-width="1920"
     inkscape:window-height="1017"
     id="namedview20"
     showgrid="false"
     viewbox-width="141.69"
     inkscape:pagecheckerboard="false"
     borderlayer="false"
     scale-x="1.04574"
     fit-margin-top="0"
     fit-margin-left="0"
     fit-margin-right="0"
     fit-margin-bottom="0"
     inkscape:zoom="4.480824"
     inkscape:cx="77.008313"
     inkscape:cy="65.459988"
     inkscape:window-x="1272"
     inkscape:window-y="-8"
     inkscape:window-maximized="1"
     inkscape:current-layer="g4539">
    <inkscape:grid
       type="xygrid"
       id="grid4541"
       originx="22.210959"
       originy="0.2231732" />
  </sodipodi:namedview>
  <g
     id="g4539"
     transform="translate(10.489142,-3.1244253)">
    <g
       id="g3717"
       transform="translate(-10.489142,3.1244253)">
      <path
         style="clip-rule:evenodd;fill-rule:evenodd"
         inkscape:connector-curvature="0"
         d="M 21.0438,107 81.3694,15.4868 115.568,67.3663 v 20.8961 h 5.171 v -8.8891 h 2.744 L 141.695,107 Z M 62.4069,77.7619 h 6.3149 c -0.0318,0.7896 -0.0944,1.5116 -0.1877,2.1659 -0.1417,0.9819 -0.366,1.8079 -0.673,2.4779 -0.3069,0.67 -0.7201,1.1782 -1.2396,1.5248 -0.5076,0.335 -1.1333,0.5025 -1.8771,0.5025 -0.85,0 -1.5406,-0.1675 -2.0719,-0.5025 -0.5313,-0.3466 -0.9268,-0.8606 -1.1865,-1.5422 -0.2597,-0.6815 -0.4191,-1.5248 -0.4781,-2.5298 h -5.1533 c 0.0945,1.7097 0.4959,3.2287 1.2042,4.5572 0.7202,1.3169 1.7237,2.3507 3.0105,3.1016 1.2868,0.7393 2.8452,1.109 4.6751,1.109 1.4285,0 2.7035,-0.2773 3.8251,-0.8318 1.1333,-0.566 2.0955,-1.3746 2.8865,-2.4258 0.8028,-1.0628 1.4108,-2.3393 1.824,-3.8294 0.4132,-1.5017 0.6198,-3.1883 0.6198,-5.0597 v -1.6288 c 0,-1.8713 -0.2125,-3.5521 -0.6375,-5.0423 -0.425,-1.5017 -1.0448,-2.7782 -1.8594,-3.8294 -0.8146,-1.0627 -1.7886,-1.8771 -2.922,-2.4432 -1.1333,-0.566 -2.3965,-0.849 -3.7896,-0.849 -1.8771,0 -3.4473,0.387 -4.7105,1.1609 -1.2514,0.7624 -2.2254,1.8136 -2.922,3.1536 -0.6847,1.34 -1.0979,2.8706 -1.2396,4.5918 h 5.171 c 0.0354,-0.9934 0.1712,-1.8367 0.4073,-2.5298 0.2479,-0.7046 0.6316,-1.2418 1.151,-1.6114 0.5313,-0.3697 1.2514,-0.5545 2.1605,-0.5545 0.5431,0 1.033,0.1039 1.4698,0.3119 0.4368,0.2079 0.8146,0.5198 1.1334,0.9357 0.3305,0.4158 0.5962,0.9414 0.7969,1.5768 0.2125,0.6238 0.3718,1.3631 0.4781,2.2179 0.0626,0.497 0.1068,1.0342 0.1325,1.6115 h -6.3128 z m 28.511,-2.8071 c -0.1737,0.1073 -0.3577,0.2055 -0.5521,0.2947 0.4745,0.1306 0.8946,0.3211 1.2604,0.5717 0.8264,0.5545 1.4167,1.2822 1.7709,2.1833 0.366,0.8894 0.549,1.8367 0.549,2.8417 0,1.6172 -0.3129,2.9803 -0.9386,4.0893 -0.6139,1.0974 -1.517,1.9291 -2.7094,2.4951 -1.1924,0.5545 -2.6563,0.8318 -4.3918,0.8318 h -8.5179 v -25.229 h 7.9512 c 1.2869,0 2.4379,0.1386 3.4532,0.4159 1.0153,0.2772 1.8772,0.6989 2.5855,1.2649 0.7084,0.566 1.2455,1.2822 1.6115,2.1486 0.3778,0.8664 0.5667,1.8887 0.5667,3.067 0,1.0397 -0.2125,1.9984 -0.6375,2.8764 -0.4251,0.8779 -1.0921,1.5941 -2.0011,2.1486 z M 112.54,88.2624 v -4.1933 h -9.598 v -6.7404 h 8.093 v -4.072 h -8.093 V 67.244 h 11.38 l -2.684,-4.1933 -8.696,-0.0146 v -0.0027 h -5.1886 v 25.229 z"
         id="path14" />
      <path
         inkscape:connector-curvature="0"
         d="M 0,107 70.146,0 77.1606,9.85526 12.6263,107 Z"
         id="path16" />
      <path
         style="fill-opacity:1"
         d="m 115.568,67.3663 7.915,12.007 -0.40296,14.124719 -74.001969,0.246167 0.946844,-25.091362 9.784053,-8.363788 50.794232,0.177534 z"
         id="path26"
         inkscape:connector-curvature="0" />
    </g>
  </g>
</svg>
