<svg width="12" height="16" viewBox="0 0 12 16" xmlns="http://www.w3.org/2000/svg">
<path d="M2.39865 1.26124C1.75585 1.76962 1.21651 2.40889 0.812645 3.14112C0.408779 3.87336 0.148614 4.68362 0.0475922 5.52384C-0.05343 6.36406 0.00674892 7.2171 0.224557 8.03233C0.442365 8.84757 0.813364 9.6084 1.31554 10.2696L5.46115 15.7312C5.52482 15.8151 5.60559 15.8828 5.69745 15.9293C5.78932 15.9758 5.88995 16 5.99188 16C6.09381 16 6.19443 15.9758 6.2863 15.9293C6.37817 15.8828 6.45893 15.8151 6.5226 15.7312L10.6845 10.2782C11.1866 9.61696 11.5576 8.85613 11.7754 8.04089C11.9932 7.22566 12.0534 6.37262 11.9524 5.5324C11.8514 4.69218 11.5912 3.88192 11.1874 3.14968C10.7835 2.41745 10.2442 1.77818 9.60135 1.2698C8.56338 0.447122 7.30014 0.00154763 6.00135 4.02416e-06C4.70257 -0.00153958 3.43838 0.44103 2.39865 1.26124ZM5.54509 9.67613C4.8935 9.58608 4.27885 9.30562 3.77069 8.86648C3.26254 8.42735 2.88118 7.84709 2.66979 7.19137C2.45839 6.53565 2.4254 5.83067 2.57454 5.15622C2.72369 4.48176 3.04902 3.86477 3.51371 3.37508C3.97839 2.8854 4.56388 2.54256 5.2039 2.38539C5.84392 2.22822 6.51291 2.26299 7.13515 2.48576C7.75739 2.70853 8.30802 3.1104 8.72474 3.6459C9.14145 4.18139 9.40759 4.82912 9.49304 5.51576C9.56321 6.07962 9.50942 6.65292 9.33583 7.19137C9.16224 7.72982 8.87349 8.21901 8.49191 8.62113C8.11032 9.02324 7.64611 9.32752 7.13515 9.51046C6.62419 9.69339 6.08015 9.75007 5.54509 9.67613Z"/>
</svg>
