<svg width="14" height="11" viewBox="0 0 14 11" fill="none" xmlns="http://www.w3.org/2000/svg">
<path d="M12.7781 4.90686C13.074 5.26114 13.074 5.73943 12.7781 6.09314C11.8462 7.20686 9.61041 9.5 7.0001 9.5C4.38979 9.5 2.15398 7.20686 1.22208 6.09314C1.07814 5.9235 1 5.71481 1 5.5C1 5.28519 1.07814 5.0765 1.22208 4.90686C2.15398 3.79314 4.38979 1.5 7.0001 1.5C9.61041 1.5 11.8462 3.79314 12.7781 4.90686Z" stroke="#8595A7" stroke-width="1.2" stroke-linecap="round" stroke-linejoin="round"/>
<path d="M7.0001 7.21429C8.03427 7.21429 8.87263 6.44677 8.87263 5.5C8.87263 4.55323 8.03427 3.78571 7.0001 3.78571C5.96592 3.78571 5.12756 4.55323 5.12756 5.5C5.12756 6.44677 5.96592 7.21429 7.0001 7.21429Z" stroke="#8595A7" stroke-width="1.2" stroke-linecap="round" stroke-linejoin="round"/>
</svg>
