<svg width="100" height="100" viewBox="0 0 100 100" fill="none" xmlns="http://www.w3.org/2000/svg">
<g clip-path="url(#clip0_873_2057)">
<path d="M50 0L93.3013 25V75L50 100L6.69873 75V25L50 0Z" fill="#2A79CC"/>
<path d="M40.6216 40.4295C40.6993 35.0559 44.9055 30.9224 50.2095 31.0011C55.2414 31.0798 59.3991 35.4496 59.3019 40.5771C59.2048 45.872 54.9791 49.9858 49.714 49.8972C44.7112 49.8185 40.5536 45.4881 40.6216 40.4295Z" fill="white"/>
<path d="M50.0055 69C45.3038 68.9311 41.117 67.4056 37.5033 64.3153C35.5119 62.6127 35.4925 59.7193 37.4839 58.0068C40.233 55.6349 43.4192 54.2079 46.9843 53.6666C48.0529 53.4993 48.8398 54.4736 48.4706 55.507C47.8198 57.3179 47.1495 59.1288 46.4695 60.9298C46.1684 61.727 46.2946 62.3962 46.8969 62.9867C47.3632 63.4394 47.8101 63.9217 48.2763 64.3744C49.3157 65.3881 50.666 65.3881 51.6957 64.3744C52.1717 63.902 52.6283 63.4197 53.1043 62.9473C53.6288 62.4257 53.7551 61.8057 53.5608 61.0971C53.2111 59.8275 52.5894 58.676 52.1134 57.4557C51.8609 56.8159 51.6374 56.1762 51.4626 55.507C51.1614 54.3161 51.89 53.4698 53.0849 53.6568C55.4745 54.0307 57.7185 54.8181 59.8071 56.0581C60.7396 56.6191 61.6236 57.249 62.459 57.9576C64.5282 59.7193 64.5087 62.6422 62.4299 64.4039C58.8162 67.4352 54.678 68.9311 50.0055 69Z" fill="white"/>
</g>
<defs>
<clipPath id="clip0_873_2057">
<rect width="100" height="100" fill="white"/>
</clipPath>
</defs>
</svg>
