<svg width="100" height="100" viewBox="0 0 100 100" fill="none" xmlns="http://www.w3.org/2000/svg">
<g clip-path="url(#clip0_873_2091)">
<path d="M50 0L93.3013 25V75L50 100L6.69873 75V25L50 0Z" fill="#2A79CC"/>
<path d="M49.9697 66C45.2436 66 40.5176 66 35.784 66C34.0696 66 33 64.9077 33 63.1615C33 58.8 33 54.4462 33 50.0846C33 49.2077 33.44 48.7615 34.3048 48.7615C37.8929 48.7615 41.481 48.7615 45.0768 48.7615C45.9567 48.7615 46.3436 49.1462 46.3588 50.0462C46.3891 52.0769 47.9746 53.6846 49.9545 53.7C51.9041 53.7154 53.5578 52.1 53.6412 50.1077C53.6792 49.0923 54.0129 48.7615 55.0143 48.7615C58.5948 48.7615 62.1678 48.7615 65.7483 48.7615C66.5373 48.7615 67 49.2231 67 50.0154C67 54.4385 67 58.8615 67 63.2846C67 64.8692 65.8849 65.9923 64.3146 65.9923C59.5279 66 54.7488 66 49.9697 66Z" fill="white"/>
<path d="M49.9621 46.3077C44.8037 46.3077 39.6452 46.3077 34.4868 46.3077C33.4779 46.3077 33 45.8154 33.0076 44.7923C33.0076 44.3462 32.9697 43.9 33.0683 43.4538C33.3262 42.2538 34.3503 41.3846 35.564 41.3846C45.183 41.3769 54.8095 41.3769 64.4284 41.3846C65.8469 41.3846 66.9621 42.5385 66.9848 43.9846C66.9924 44.2692 66.9848 44.5462 66.9848 44.8308C66.9848 45.8 66.4917 46.3077 65.5435 46.3077C61.7733 46.3077 58.0107 46.3077 54.2405 46.3077C52.8144 46.3077 51.3882 46.3077 49.9621 46.3077Z" fill="white"/>
<path d="M50.0379 34C51.9192 34 53.8081 34 55.6894 34C57.768 34 59.3686 35.3923 59.6796 37.4692C59.8086 38.3 59.3762 38.9462 58.6252 39.0462C58.0031 39.1308 57.3128 38.6308 57.2673 37.8154C57.2218 37.0538 56.5694 36.4692 55.8184 36.4692C51.9344 36.4615 48.058 36.4615 44.174 36.4615C43.423 36.4615 42.7631 37.0462 42.7251 37.8077C42.6872 38.5308 42.0803 39.1308 41.3672 39.0385C40.6238 38.9462 40.199 38.3077 40.3052 37.5C40.5935 35.4462 42.2245 34 44.2726 34C46.1919 34 48.1111 34 50.0379 34Z" fill="white"/>
<path d="M50.0759 48.7846C50.7965 48.7615 51.1986 49.1077 51.2062 49.7538C51.2213 50.4462 50.7282 50.9846 50.0531 51.0077C49.378 51.0308 48.8166 50.5077 48.8166 49.8385C48.8166 49.3 49.0214 48.7615 50.0759 48.7846Z" fill="white"/>
</g>
<defs>
<clipPath id="clip0_873_2091">
<rect width="100" height="100" fill="white"/>
</clipPath>
</defs>
</svg>
