<svg width="12" height="13" viewBox="0 0 12 13" xmlns="http://www.w3.org/2000/svg">
<path d="M0.295516 12.2051C-0.0983021 11.8119 -0.0983021 11.1745 0.295516 10.7813L10.2785 0.814639C10.6723 0.421465 11.3108 0.421465 11.7046 0.814639C12.0985 1.20781 12.0985 1.84527 11.7046 2.23845L1.72166 12.2051C1.32784 12.5983 0.689333 12.5983 0.295516 12.2051Z"/>
<path d="M0.295363 0.794881C0.689181 0.401706 1.32769 0.401706 1.7215 0.794881L11.7045 10.7616C12.0983 11.1547 12.0983 11.7922 11.7045 12.1854C11.3107 12.5785 10.6722 12.5785 10.2783 12.1854L0.295363 2.21869C-0.0984544 1.82552 -0.0984544 1.18805 0.295363 0.794881Z"/>
</svg>
