<svg width="100" height="100" viewBox="0 0 100 100" fill="none" xmlns="http://www.w3.org/2000/svg">
<path d="M50 99L100 9H0L50 99Z" fill="#E8EFF5"/>
<path d="M55.5771 54.415C56.7117 54.415 57.7842 54.415 58.849 54.415C59.4629 57.0358 58.1573 59.9812 55.8025 61.2956C53.5409 62.5545 50.6965 62.0953 48.8857 60.1633C47.922 59.134 47.3469 57.8988 47.3314 56.4657C47.2925 53.3381 47.308 50.2106 47.308 47.083C47.308 45.4995 47.308 43.9159 47.308 42.3323C47.308 42.2136 47.308 42.0948 47.2925 41.976C47.1992 41.2238 46.5542 40.9467 45.9558 41.398C45.3107 41.881 44.6735 42.3798 43.9895 42.9024C43.329 42.0631 42.6839 41.2397 42 40.3766C42.2098 40.2024 42.4041 40.0361 42.6062 39.8699C44.2771 38.508 45.9402 37.1461 47.6111 35.7922C48.1163 35.3804 48.6836 35.0954 49.3287 35.4121C50.0126 35.7526 50.2924 36.3543 50.2924 37.1303C50.2846 43.425 50.2846 49.7118 50.2924 56.0065C50.2924 57.6771 51.5281 58.8727 53.1212 58.7777C54.4657 58.6985 55.5305 57.6059 55.5771 56.2361C55.5926 55.6502 55.5771 55.0563 55.5771 54.415Z" fill="#2A79CC"/>
<path d="M51.6058 28.0327C51.6058 29.7192 50.2768 31.0811 48.6215 31.0811C46.9739 31.0811 45.6216 29.7033 45.6371 28.0327C45.6527 26.362 47.0127 24.9843 48.6448 25.0001C50.2768 25.016 51.6058 26.3699 51.6058 28.0327Z" fill="#2A79CC"/>
<path d="M55.5771 54.415C56.7117 54.415 57.7842 54.415 58.849 54.415C59.4629 57.0358 58.1573 59.9812 55.8025 61.2956C53.5409 62.5545 50.6965 62.0953 48.8857 60.1633C47.922 59.134 47.3469 57.8988 47.3314 56.4657C47.2925 53.3381 47.308 50.2106 47.308 47.083C47.308 45.4995 47.308 43.9159 47.308 42.3323C47.308 42.2136 47.308 42.0948 47.2925 41.976C47.1992 41.2238 46.5542 40.9467 45.9558 41.398C45.3107 41.881 44.6735 42.3798 43.9895 42.9024C43.329 42.0631 42.6839 41.2397 42 40.3766C42.2098 40.2024 42.4041 40.0361 42.6062 39.8699C44.2771 38.508 45.9402 37.1461 47.6111 35.7922C48.1163 35.3804 48.6836 35.0954 49.3287 35.4121C50.0126 35.7526 50.2924 36.3543 50.2924 37.1303C50.2846 43.425 50.2846 49.7118 50.2924 56.0065C50.2924 57.6771 51.5281 58.8727 53.1212 58.7777C54.4657 58.6985 55.5305 57.6059 55.5771 56.2361C55.5926 55.6502 55.5771 55.0563 55.5771 54.415Z" stroke="#2A79CC"/>
<path d="M51.6058 28.0327C51.6058 29.7192 50.2768 31.0811 48.6215 31.0811C46.9739 31.0811 45.6216 29.7033 45.6371 28.0327C45.6527 26.362 47.0127 24.9843 48.6448 25.0001C50.2768 25.016 51.6058 26.3699 51.6058 28.0327Z" stroke="#2A79CC"/>
</svg>
